<svg xmlns="http://www.w3.org/2000/svg" width="319" height="70" viewBox="0 0 319 70" fill="none"><g clip-path="url(#clip0_1044_1891)"><path d="M118.088 33.7488V0.624756H124.288V33.7488H118.088Z" fill="black"></path><path d="M151.539 9.75654C150.402 7.86337 147.281 6.06518 143.684 6.06518C139.046 6.06518 136.822 8.00421 136.822 10.4673C136.822 13.3529 140.229 14.1587 144.205 14.6303C151.113 15.4819 157.549 17.2801 157.549 25.1836C157.549 32.5664 151.018 35.7369 143.638 35.7369C136.871 35.7369 131.667 33.6538 129.207 27.5976L134.412 24.8987C135.879 28.5409 139.711 30.1524 143.733 30.1524C147.756 30.1524 151.352 28.78 151.352 25.1836C151.352 22.0589 148.086 20.7815 143.688 20.3098C136.921 19.5041 130.674 17.7059 130.674 10.2773C130.674 3.46452 137.392 0.670611 143.498 0.624756C148.656 0.624756 154.002 2.09213 156.511 7.20174L151.542 9.75654H151.539Z" fill="black"></path><path d="M184.947 33.7488V20.359H168.668V33.7488H162.422V0.624756H168.668V14.5845H184.947V0.624756H191.147V33.7488H184.947Z" fill="black"></path><path d="M220.531 27.5026H203.214L200.374 33.7488H193.607L208.465 0.624756H215.277L230.135 33.7488H223.322L220.531 27.5026ZM211.871 7.58168L205.72 21.6822H218.022L211.871 7.58168Z" fill="black"></path><path d="M259.379 10.2315C259.379 12.7863 258.148 15.2461 255.072 16.6185C258.954 17.8009 260.372 21.9181 260.372 24.0012C260.372 31.3839 254.836 33.7488 247.974 33.7488H232.266V0.624756H247.974C254.506 0.624756 259.379 3.5595 259.379 10.2315ZM238.417 13.9228H247.974C251.902 13.9228 253.179 12.2655 253.179 10.3723C253.179 8.85909 251.947 6.30428 247.974 6.30428H238.417V13.9228ZM238.417 27.9284H247.974C250.529 27.9284 254.175 27.0768 254.175 23.9521C254.175 20.8274 250.532 19.4091 247.974 19.4091H238.417V27.9251V27.9284Z" fill="black"></path><path d="M289.478 33.7488H264.684V0.624756H289.478V6.68095H270.881V14.2995H288.813V20.1199H270.881V27.5976H289.478V33.7488Z" fill="black"></path><path d="M318.998 33.7488H294.203V0.624756H318.998V6.68095H300.4V14.2995H318.333V20.1199H300.4V27.5976H318.998V33.7488Z" fill="black"></path><path d="M105.06 33.7029V20.3295H88.8047V33.7029H82.5684V0.624756H88.8047V14.5648H105.06V0.624756H111.251V33.7029H105.06Z" fill="black"></path><path d="M88.0267 47.9311H82.5273V45.9561H95.9139V47.9311H90.3883V63.9347H88.0267V47.9311Z" fill="#231F20"></path><path d="M97.2522 57.9047C97.3046 61.0785 99.3451 62.3854 101.707 62.3854C103.397 62.3854 104.415 62.0906 105.303 61.7172L105.706 63.3975C104.874 63.7709 103.452 64.1967 101.386 64.1967C97.3897 64.1967 95.002 61.5829 95.002 57.6885C95.002 53.794 97.3078 50.7283 101.091 50.7283C105.329 50.7283 106.456 54.436 106.456 56.8107C106.456 57.2921 106.404 57.6655 106.374 57.9047H97.2522ZM104.173 56.2244C104.199 54.7308 103.557 52.4085 100.901 52.4085C98.5132 52.4085 97.4683 54.5965 97.2784 56.2244H104.173Z" fill="#231F20"></path><path d="M118.636 63.4528C118.02 63.7738 116.651 64.1996 114.905 64.1996C110.988 64.1996 108.439 61.5597 108.439 57.6095C108.439 53.6594 111.174 50.7542 115.416 50.7542C116.811 50.7542 118.046 51.1013 118.688 51.4223L118.151 53.2369C117.588 52.9159 116.703 52.6244 115.416 52.6244C112.439 52.6244 110.827 54.8124 110.827 57.5047C110.827 60.4919 112.76 62.3326 115.334 62.3326C116.677 62.3326 117.561 61.9855 118.233 61.6907L118.636 63.4528Z" fill="#231F20"></path><path d="M121.396 44.9962H123.757V53.0504H123.81C124.186 52.3822 124.776 51.7959 125.5 51.3963C126.198 50.9967 127.03 50.7281 127.914 50.7281C129.656 50.7281 132.447 51.7959 132.447 56.2504V63.9312H130.085V56.5157C130.085 54.4359 129.306 52.6737 127.082 52.6737C125.552 52.6737 124.347 53.7415 123.915 55.0222C123.78 55.3431 123.754 55.6903 123.754 56.1423V63.9312H121.393V44.9929L121.396 44.9962Z" fill="#231F20"></path><path d="M136.286 54.5179C136.286 53.1848 136.26 52.0908 136.178 51.0231H138.271L138.405 53.1553H138.457C139.103 51.9271 140.603 50.7283 142.751 50.7283C144.55 50.7283 147.34 51.796 147.34 56.2244V63.9346H144.979V56.493C144.979 54.4131 144.199 52.6771 141.975 52.6771C140.419 52.6771 139.211 53.7711 138.808 55.078C138.7 55.3728 138.647 55.7724 138.647 56.172V63.9346H136.286V54.5179Z" fill="#231F20"></path><path d="M162.925 57.3708C162.925 62.1463 159.597 64.2261 156.46 64.2261C152.945 64.2261 150.236 61.6648 150.236 57.5837C150.236 53.2634 153.079 50.7283 156.676 50.7283C160.272 50.7283 162.925 53.4206 162.925 57.3708ZM152.624 57.5051C152.624 60.3317 154.262 62.4673 156.568 62.4673C158.874 62.4673 160.511 60.3612 160.511 57.4526C160.511 55.2647 159.411 52.4904 156.62 52.4904C153.829 52.4904 152.624 55.0518 152.624 57.5051Z" fill="#231F20"></path><path d="M165.902 44.9961H168.264V63.9344H165.902V44.9961Z" fill="#231F20"></path><path d="M183.984 57.3708C183.984 62.1463 180.656 64.2261 177.518 64.2261C174.004 64.2261 171.295 61.6648 171.295 57.5837C171.295 53.2634 174.138 50.7283 177.734 50.7283C181.331 50.7283 183.984 53.4206 183.984 57.3708ZM173.683 57.5051C173.683 60.3317 175.32 62.4673 177.626 62.4673C179.932 62.4673 181.57 60.3612 181.57 57.4526C181.57 55.2647 180.469 52.4904 177.679 52.4904C174.888 52.4904 173.683 55.0518 173.683 57.5051Z" fill="#231F20"></path><path d="M198.145 51.0229C198.093 51.9564 198.037 52.998 198.037 54.5702V62.0642C198.037 65.0252 197.447 66.8398 196.186 67.96C194.925 69.1325 193.101 69.5059 191.463 69.5059C189.826 69.5059 188.191 69.1325 187.143 68.4382L187.733 66.6498C188.591 67.1837 189.934 67.6619 191.542 67.6619C193.956 67.6619 195.728 66.4074 195.728 63.155V61.7138H195.675C194.952 62.9126 193.556 63.8755 191.545 63.8755C188.325 63.8755 186.02 61.1537 186.02 57.5802C186.02 53.2043 188.889 50.7249 191.869 50.7249C194.123 50.7249 195.358 51.8974 195.921 52.9652H195.973L196.082 51.0196H198.148L198.145 51.0229ZM195.705 56.1161C195.705 55.7165 195.679 55.3694 195.571 55.0484C195.142 53.6891 193.989 52.5689 192.269 52.5689C190.016 52.5689 188.407 54.4621 188.407 57.4492C188.407 59.9844 189.695 62.0905 192.243 62.0905C193.69 62.0905 195.007 61.1832 195.515 59.6896C195.649 59.29 195.702 58.8347 195.702 58.4351V56.1161H195.705Z" fill="#231F20"></path><path d="M204.425 47.3971C204.451 48.1963 203.862 48.8382 202.922 48.8382C202.09 48.8382 201.5 48.1995 201.5 47.3971C201.5 46.5946 202.116 45.9297 202.974 45.9297C203.832 45.9297 204.422 46.5717 204.422 47.3971H204.425ZM201.795 63.9345V51.0229H204.156V63.9345H201.795Z" fill="#231F20"></path><path d="M209.386 57.9047C209.439 61.0785 211.479 62.3854 213.841 62.3854C215.531 62.3854 216.55 62.0906 217.437 61.7172L217.84 63.3975C217.008 63.7709 215.587 64.1967 213.52 64.1967C209.521 64.1967 207.133 61.5829 207.133 57.6885C207.133 53.794 209.439 50.7283 213.222 50.7283C217.46 50.7283 218.587 54.436 218.587 56.8107C218.587 57.2921 218.534 57.6655 218.505 57.9047H209.383H209.386ZM216.307 56.2244C216.333 54.7308 215.691 52.4085 213.035 52.4085C210.647 52.4085 209.602 54.5965 209.412 56.2244H216.307Z" fill="#231F20"></path><path d="M221.188 61.5337C221.886 61.9857 223.12 62.4672 224.299 62.4672C226.016 62.4672 226.822 61.6123 226.822 60.5478C226.822 59.4276 226.15 58.8151 224.408 58.1731C222.072 57.3477 220.975 56.0671 220.975 54.5178C220.975 52.4379 222.665 50.7314 225.456 50.7314C226.769 50.7314 227.925 51.1048 228.649 51.5306L228.06 53.2371C227.549 52.9161 226.612 52.4903 225.403 52.4903C224.008 52.4903 223.232 53.2895 223.232 54.2525C223.232 55.3203 224.011 55.7985 225.701 56.4405C227.955 57.2953 229.108 58.4155 229.108 60.3349C229.108 62.6015 227.336 64.2031 224.25 64.2031C222.829 64.2031 221.512 63.8559 220.602 63.322L221.191 61.5337H221.188Z" fill="#231F20"></path><path d="M237.902 45.9561H240.238V61.9858H247.964V63.9347H237.902V45.9561Z" fill="#231F20"></path><path d="M253.112 47.3971C253.139 48.1963 252.549 48.8382 251.609 48.8382C250.777 48.8382 250.188 48.1995 250.188 47.3971C250.188 46.5946 250.803 45.9297 251.661 45.9297C252.52 45.9297 253.109 46.5717 253.109 47.3971H253.112ZM250.482 63.9345V51.0229H252.844V63.9345H250.482Z" fill="#231F20"></path><path d="M256.758 54.5179C256.758 53.1848 256.732 52.0908 256.65 51.0231H258.717L258.825 53.1029H258.907C259.631 51.8747 260.84 50.7283 262.985 50.7283C264.757 50.7283 266.097 51.796 266.66 53.3158H266.712C267.115 52.5952 267.623 52.0352 268.16 51.6356C268.94 51.0493 269.798 50.7283 271.029 50.7283C272.746 50.7283 275.294 51.8485 275.294 56.3292V63.9314H272.988V56.624C272.988 54.1445 272.074 52.6509 270.171 52.6509C268.832 52.6509 267.783 53.6368 267.381 54.7832C267.272 55.1042 267.194 55.53 267.194 55.9558V63.9314H264.888V56.1949C264.888 54.1412 263.974 52.6477 262.179 52.6477C260.705 52.6477 259.631 53.8202 259.254 54.9961C259.12 55.3433 259.068 55.7429 259.068 56.1425V63.9314H256.762V54.5146L256.758 54.5179Z" fill="#231F20"></path><path d="M281.763 47.3971C281.789 48.1963 281.199 48.8382 280.259 48.8382C279.427 48.8382 278.838 48.1995 278.838 47.3971C278.838 46.5946 279.454 45.9297 280.312 45.9297C281.17 45.9297 281.76 46.5717 281.76 47.3971H281.763ZM279.133 63.9345V51.0229H281.494V63.9345H279.133Z" fill="#231F20"></path><path d="M288.253 47.3154V51.0232H291.633V52.8115H288.253V59.7717C288.253 61.3734 288.708 62.2807 290.024 62.2807C290.64 62.2807 291.099 62.2021 291.394 62.1202L291.502 63.8823C291.046 64.069 290.323 64.2033 289.409 64.2033C288.308 64.2033 287.424 63.8561 286.86 63.2174C286.189 62.5231 285.947 61.3767 285.947 59.8569V52.8148H283.936V51.0264H285.947V47.9312L288.253 47.3187V47.3154Z" fill="#231F20"></path><path d="M295.444 57.9047C295.496 61.0785 297.537 62.3854 299.898 62.3854C301.588 62.3854 302.607 62.0906 303.494 61.7172L303.897 63.3975C303.065 63.7709 301.644 64.1967 299.577 64.1967C295.581 64.1967 293.193 61.5829 293.193 57.6885C293.193 53.794 295.499 50.7283 299.282 50.7283C303.521 50.7283 304.647 54.436 304.647 56.8107C304.647 57.2921 304.595 57.6655 304.566 57.9047H295.444ZM302.364 56.2244C302.391 54.7308 301.749 52.4085 299.092 52.4085C296.705 52.4085 295.66 54.5965 295.47 56.2244H302.364Z" fill="#231F20"></path><path d="M318.78 44.9961V60.6001C318.78 61.7464 318.806 63.0533 318.888 63.9344H316.769L316.661 61.694H316.609C315.885 63.1352 314.303 64.2292 312.18 64.2292C309.042 64.2292 306.625 61.5892 306.625 57.6686C306.599 53.3745 309.282 50.7346 312.446 50.7346C314.43 50.7346 315.773 51.6681 316.363 52.7096H316.415V44.9994H318.777L318.78 44.9961ZM316.419 56.2798C316.419 55.985 316.392 55.5854 316.31 55.2939C315.963 53.8003 314.673 52.5721 312.904 52.5721C310.464 52.5721 309.013 54.7043 309.013 57.5605C309.013 60.1743 310.3 62.336 312.848 62.336C314.43 62.336 315.881 61.2944 316.31 59.5355C316.392 59.2146 316.419 58.8936 316.419 58.5235V56.2831V56.2798Z" fill="#231F20"></path><path d="M65.76 31.9406C66.6935 30.5552 67.7842 29.8182 69.2811 29.376C70.2801 30.1719 71.0629 31.7474 72.8578 30.9187C74.1942 30.303 74.3645 29.2745 74.1057 28.0462C71.3577 25.5569 69.2156 25.8189 63.6343 29.3236C63.749 27.3256 64.6595 25.7764 66.1007 24.3843C66.6706 24.6955 67.2209 25.082 67.8334 25.3145C69.0747 25.7862 70.1982 25.4062 70.9745 24.4138C71.7638 23.405 71.7802 22.2422 70.981 21.1679C70.1982 20.1165 69.1763 19.7464 67.8989 20.1853C64.2959 21.4201 62.0392 23.9192 60.9878 27.5385C60.7454 28.3672 60.6144 29.2286 60.3982 30.244C58.0334 30.0344 55.7439 29.8018 53.2087 29.9394C51.1322 18.1054 45.112 9.15704 34.087 4.04088C28.0308 1.22404 21.2999 0.382266 17.7068 1.75465C16.4785 4.53219 16.5604 6.32055 18.3521 15.2886C16.3017 15.7733 14.2283 16.2089 12.1878 16.7625C8.17542 17.8532 4.60852 19.8283 1.43795 22.4977C-0.353692 24.0077 -0.432301 24.7741 0.985942 26.6804C7.7398 35.7761 16.8749 40.1619 28.1291 40.3027C28.9021 40.3125 29.6784 40.2536 30.6904 40.2208C29.2132 42.4743 27.5231 44.3478 26.4947 46.6602C25.4498 49.012 24.8668 51.439 24.8209 54.0528C22.6887 55.4023 20.6186 56.8762 21.4506 59.8306C22.0336 61.9039 24.0054 62.5099 28.0472 62.1037C32.8915 66.8891 38.9248 68.2811 45.4887 67.7341C55.7046 66.8891 64.2959 62.7653 70.434 54.3705C73.8863 49.6507 75.3373 44.4232 72.7563 38.688C71.361 35.5894 68.8389 33.6668 65.76 31.9374V31.9406Z" fill="#231F20"></path><path d="M13.1733 31.5412C14.8634 33.061 16.9138 33.6735 19.1148 33.9027C25.8228 35.6616 32.3802 35.3636 38.7181 32.3928C40.192 31.7017 41.8133 31.1842 42.6518 29.589C39.4354 25.3343 35.0889 22.8123 30.0481 21.3482C25.2234 20.4966 20.4283 20.4278 15.7052 21.9279C12.9342 22.809 10.3958 24.0635 8.50586 26.3006C9.19697 29.0519 11.7583 29.779 13.1733 31.5412Z" fill="#3350B8"></path><path d="M65.4117 52.1629C64.357 51.7305 62.5359 52.4773 62.4867 50.3843C63.6168 49.3919 64.8188 50.5743 65.8735 50.0502C67.9665 50.024 68.6346 48.4781 69.0867 46.8666C70.1446 43.113 69.352 39.7917 66.5187 37.0273C62.0151 33.0903 56.8694 33.4276 51.6255 34.6166C48.6089 43.3816 52.1627 51.8026 60.3807 56.5519C63.2401 56.5257 64.9957 54.9928 65.4084 52.1629H65.4117Z" fill="#F7D441"></path><path d="M39.2949 39.6705C36.5272 49.7718 41.1521 58.8447 51.1355 62.6703C52.6782 62.2085 54.4109 61.9759 55.9372 61.2259C55.9994 60.5348 55.5736 60.217 55.2166 59.9517C47.4834 54.1871 44.0803 46.5226 45.0465 36.9225C42.5114 36.5458 40.7689 37.8298 39.2917 39.6705H39.2949Z" fill="#F7D341"></path><path d="M46.4351 23.1102C45.7472 21.669 45.6981 19.8938 44.2111 18.8718C40.464 14.3682 36.1602 10.6506 30.4348 8.83277C27.8112 7.99754 25.2007 7.37194 22.6721 7.66345C21.5388 8.45937 22.7278 9.30442 22.2037 9.96605C21.7452 11.9346 23.1962 13.3397 23.6351 15.2034C26.9006 15.5146 30.1204 15.9142 33.1992 16.9983C37.0871 17.8761 40.1955 20.3163 43.5888 22.1833C44.4633 22.6647 45.1806 23.7522 46.4318 23.1102H46.4351Z" fill="#3350B8"></path><path d="M29.3509 56.3848C31.1163 61.2062 34.657 63.4269 41.8858 63.8887C36.2292 58.9953 33.2355 53.1651 32.7246 46.1394C29.8914 46.8665 30.1698 49.6211 29.3182 51.57C28.6598 53.0734 29.0856 54.7766 29.3509 56.3848Z" fill="#F5D241"></path><path d="M13.1741 31.5411C12.3193 29.507 9.93805 28.757 8.97508 26.3332C11.1499 24.9444 13.3543 23.4312 15.9746 22.7041C20.0197 21.5806 24.1336 20.9943 28.3392 21.5348C28.9386 21.6101 29.4987 21.5839 30.0489 21.3448C21.7 18.6197 12.4961 20.0379 5.83398 25.1639C7.76974 27.8857 10.2623 29.946 13.1709 31.5411H13.1741Z" fill="white"></path><path d="M22.2046 9.96627C22.7581 9.53064 22.2865 8.84609 22.709 8.1255C31.5296 8.67249 38.611 12.5145 44.0612 19.6319C44.1104 19.3863 44.1595 19.1308 44.2119 18.8753C39.4855 11.0308 30.1867 5.69516 21.7395 6.02925C21.5429 7.37871 21.7689 8.68559 22.2046 9.96954V9.96627Z" fill="white"></path><path d="M66.5242 37.0242C68.3027 39.6412 69.2951 42.4679 68.6171 45.6581C68.2437 47.4235 67.9588 49.3167 65.8789 50.0471C67.0482 50.5876 67.9129 49.736 68.8693 49.4248C71.5257 44.515 70.7232 40.3061 66.5242 37.0242Z" fill="#C58E34"></path><path d="M29.3501 56.385C29.5269 53.4437 29.789 50.5254 31.348 47.9018C31.7345 47.25 31.9638 46.4901 32.7237 46.1396C32.7335 45.5861 33.0906 45.0162 32.6516 44.479C29.0618 47.5906 27.7386 52.3629 29.3501 56.385Z" fill="white"></path><path d="M65.4125 52.1632C64.1613 54.1121 62.8479 55.9889 60.3848 56.5522C60.8204 57.1385 61.4689 57.3023 62.2288 57.4628C64.2301 56.1952 65.8809 54.5051 67.2762 52.5071C66.6866 51.911 66.0545 52.0093 65.4125 52.1665V52.1632Z" fill="#C28B33"></path><path d="M39.293 39.6707C41.1632 38.652 42.9286 37.4205 45.0478 36.9226C45.2116 36.5787 45.4081 36.2315 44.8906 35.6943C42.909 36.7981 39.9218 36.4411 39.293 39.6739V39.6707Z" fill="white"></path><path d="M61.5408 40.8236C60.6335 41.4852 60.3322 42.6873 59.1006 42.3728C57.9379 42.078 58.2458 41.0594 58.0329 39.9785C56.5 41.0561 55.7859 42.2516 56.5524 43.909C57.2042 45.3174 58.4456 45.8218 59.949 45.4157C61.5932 44.9735 62.1009 43.6044 61.5441 40.8236H61.5408Z" fill="#2F2922"></path></g><defs><clipPath id="clip0_1044_1891"><rect width="319" height="68.8847" fill="white" transform="translate(0 0.624756)"></rect></clipPath></defs></svg>